<?xml version="1.0" standalone="no"?>
<!DOCTYPE svg PUBLIC "-//W3C//DTD SVG 1.1//EN" "http://www.w3.org/Graphics/SVG/1.1/DTD/svg11.dtd" >
<!--
2013-9-30: Created.
-->
<svg>
<metadata>
Created by iconfont
</metadata>
<defs>

<font id="boardgame" horiz-adv-x="1024" >
  <font-face
    font-family="boardgame"
    font-weight="500"
    font-stretch="normal"
    units-per-em="1024"
    ascent="896"
    descent="-128"
  />
    <missing-glyph />
    
    <glyph glyph-name="dice2" unicode="&#58945;" d="M341.333333 510.293333c-11.946667 0-22.186667 4.266667-30.72 12.8-7.970133 7.970133-11.946667 17.92-11.946666 29.866667s3.976533 22.186667 11.946666 30.72c8.533333 7.953067 18.773333 11.946667 30.72 11.946667s21.896533-3.976533 29.866667-11.946667c8.533333-8.533333 12.8-18.773333 12.8-30.72s-4.266667-21.896533-12.8-29.866667c-7.970133-8.533333-17.92-12.8-29.866667-12.8z m128 213.333334c11.946667 0 21.896533-3.976533 29.866667-11.946667 8.533333-8.533333 12.8-18.773333 12.8-30.72s-4.266667-21.896533-12.8-29.866667c-7.970133-8.533333-17.92-12.8-29.866667-12.8s-22.186667 4.266667-30.72 12.8c-7.970133 7.970133-11.946667 17.92-11.946666 29.866667s3.976533 22.186667 11.946666 30.72c8.533333 7.970133 18.773333 11.946667 30.72 11.946667zM243.2 395.093333c-7.970133-8.533333-17.92-12.8-29.866667-12.8s-22.186667 4.266667-30.72 12.8c-7.970133 7.970133-11.946667 17.92-11.946666 29.866667s3.976533 22.186667 11.946666 30.72c8.533333 7.953067 18.773333 11.946667 30.72 11.946667s21.896533-3.976533 29.866667-11.946667c8.533333-8.533333 12.8-18.773333 12.8-30.72s-4.266667-21.896533-12.8-29.866667zM512-58.026666999999975c-27.0336 0.682667-50.176 10.683733-69.239467 29.730134-19.3024 19.3536-30.429867 42.666667-33.0752 69.2736L409.6 279.893333H170.666667c-27.0336 0.682667-50.176 10.683733-69.239467 29.730134-19.285333 19.319467-30.4128 42.615467-33.0752 69.256533L68.266667 726.1866669999999c2.082133 27.562667 12.629333 50.414933 31.4368 69.239466 19.626667 19.626667 43.3664 29.917867 70.536533 30.583467h344.302933c27.016533-0.682667 50.158933-10.666667 69.239467-29.730133 19.643733-19.626667 29.934933-43.349333 30.6176-70.519467V488.106667h241.493333c27.050667-0.7168 50.176-10.7008 69.239467-29.7472 19.6096-19.626667 29.917867-43.3664 30.600533-70.519467V41.81333299999994c-2.065067-27.5456-12.612267-50.397867-31.453866-69.256533-19.643733-19.626667-43.3664-29.917867-70.536534-30.600533H512z m-68.266667 354.986667V42.66666699999996c1.792-17.152 9.403733-33.041067 23.176534-46.848 12.817067-12.817067 27.716267-19.268267 45.5168-19.712H853.333333c17.937067 0.443733 33.399467 7.202133 46.813867 20.599466 13.073067 13.090133 20.1216 28.279467 21.504 46.421334L921.6 387.413333c-0.443733 17.954133-7.202133 33.399467-20.599467 46.813867-12.834133 12.817067-27.733333 19.285333-45.550933 19.7632L512 453.973333c-17.937067-0.4608-33.399467-7.202133-46.830933-20.616533-13.056-13.073067-20.087467-28.245333-21.486934-46.404267L443.733333 296.96000000000004zM123.8528 771.293867c-13.073067-13.073067-20.104533-28.2624-21.504-46.421334L102.4 380.58666700000003c1.792-17.169067 9.403733-33.058133 23.159467-46.813867 12.817067-12.834133 27.733333-19.285333 45.533866-19.729067H409.6v74.24c2.082133 27.562667 12.629333 50.414933 31.4368 69.239467 19.643733 19.6096 43.3664 29.9008 70.519467 30.583467h68.693333V725.333333c-0.443733 17.954133-7.202133 33.399467-20.599467 46.813867-12.834133 12.8512-27.733333 19.3024-45.5168 19.746133H170.666667c-17.954133-0.443733-33.399467-7.185067-46.813867-20.599466zM840.533333 373.76c8.533333-8.533333 12.8-18.773333 12.8-30.72 0-11.9296-4.266667-21.896533-12.8-29.866667-7.970133-8.533333-17.92-12.8-29.866666-12.8s-22.186667 4.266667-30.72 12.8c-7.9872 7.953067-11.946667 17.92-11.946667 29.866667s3.959467 22.203733 11.946667 30.737067c8.533333 7.970133 18.773333 11.963733 30.72 11.963733s21.896533-4.027733 29.866666-11.9808z m0-128c8.533333-8.533333 12.8-18.773333 12.8-30.72 0-11.9296-4.266667-21.896533-12.8-29.866667-7.970133-8.533333-17.92-12.8-29.866666-12.8s-22.186667 4.266667-30.72 12.8c-7.9872 7.953067-11.946667 17.92-11.946667 29.866667s3.959467 22.203733 11.946667 30.737067c8.533333 7.970133 18.773333 11.9296 30.72 11.9296s21.896533-3.9936 29.866666-11.946667z m-60.586666-128c8.533333 7.953067 18.773333 11.9296 30.72 11.9296s21.896533-3.976533 29.866666-11.9296c8.533333-8.533333 12.8-18.773333 12.8-30.72 0-11.9296-4.266667-21.896533-12.8-29.866667-7.970133-8.533333-17.92-12.8-29.866666-12.8s-22.186667 4.266667-30.72 12.8c-7.9872 7.953067-11.946667 17.92-11.946667 29.866667s3.959467 22.186667 11.946667 30.72zM597.333333 343.03999999999996c0-11.9296-4.266667-21.896533-12.8-29.866667-7.970133-8.533333-17.92-12.8-29.866666-12.8s-22.186667 4.266667-30.72 12.8c-7.970133 7.953067-11.946667 17.92-11.946667 29.866667s3.976533 22.203733 11.946667 30.737067c8.533333 7.970133 18.773333 11.963733 30.72 11.963733s21.896533-3.9936 29.866666-11.963733c8.533333-8.5504 12.8-18.7904 12.8-30.737067z m-73.386666-225.28c8.533333 7.953067 18.773333 11.9296 30.72 11.9296s21.896533-3.976533 29.866666-11.9296c8.533333-8.533333 12.8-18.773333 12.8-30.72 0-11.9296-4.266667-21.896533-12.8-29.866667-7.970133-8.533333-17.92-12.8-29.866666-12.8s-22.186667 4.266667-30.72 12.8c-7.970133 7.953067-11.946667 17.92-11.946667 29.866667s3.976533 22.186667 11.946667 30.72z m-11.946667 97.28c0 11.946667 3.976533 22.203733 11.946667 30.737067 8.533333 7.970133 18.773333 11.9296 30.72 11.9296s21.896533-3.959467 29.866666-11.9296c8.533333-8.5504 12.8-18.7904 12.8-30.737067 0-11.9296-4.266667-21.896533-12.8-29.866667-7.970133-8.533333-17.92-12.8-29.866666-12.8s-22.186667 4.266667-30.72 12.8c-7.970133 7.953067-11.946667 17.92-11.946667 29.866667z"  horiz-adv-x="1024" />

    
    <glyph glyph-name="poker" unicode="&#58988;" d="M866 682.1l-290.5 66.4c-24.8 5.7-49.5-3.9-64.4-22.6-14.8 17.5-38.5 26.4-62.4 21.2L157.5 684c-34.5-7.5-56.5-41.6-49-76.1l114.8-530c7.5-34.5 41.6-56.5 76.1-49l213.5 46.2 203.7-46.6c34.5-7.9 68.8 13.7 76.7 48.1l120.9 528.7c7.8 34.6-13.7 68.9-48.2 76.8z m-602.2-582L154.4 605.4c-3.7 17.3 7.2 34.3 24.5 38l267.6 58c17.3 3.7 34.3-7.2 38-24.5l4.4-20.2-111-485c-6.8-29.8 8.4-59.6 35-72.1l-111.1-24.1c-17.2-3.7-34.3 7.3-38 24.6z m604.8 503.1l-115.3-504c-3.9-17.2-21.1-28-38.3-24.1l-201.5 46.1v0.1l-0.3-0.1-65.1 14.9c-17.2 3.9-28 21.1-24.1 38.3l115.3 504c3.9 17.2 21.1 28 38.3 24.1l266.9-61c17.2-3.9 28-21.1 24.1-38.3zM772.1 468c-16.6 28.3-53 37.9-81.3 21.3l-23.4-13.7-10 24.3C635.6 553.6 579 532 579 532c-30.4-12.5-44.9-47.2-32.5-77.6l36.3-88.5c12.5-30.4 47.2-44.9 77.6-32.5l90.8 52.3c28.3 16.6 37.9 53 21.3 81.3l-0.4 1z m-40.4-54.4l-80-46.8c-14.5-8.7-33.7 2.6-38.8 15.2L579 464.6c-5.5 13.3 0.9 28.5 14.2 34 13.3 5.5 28.5-0.9 34-14.2l15.5-37.9c3.3-7.6 9.5-16.9 21.3-12l41.3 24.1c12.4 7.3 28.4 3.1 35.7-9.3 7.3-12.4 3.1-28.4-9.3-35.7zM629.3 300.5c-1.7 10-13.8 14.1-21.3 7.2l-42.9-39.6c-7.3-6.8-4.4-19 5.1-21.7l52.4-15.1c9.1-2.6 17.8 5.2 16.2 14.5l-9.5 54.7z"  horiz-adv-x="1024" />

    
    <glyph glyph-name="dice" unicode="&#58880;" d="M1184 512H946.52c25.38-59.18 14.24-130.4-34-178.64L640 60.84V-32c0-53.02 42.98-96 96-96h448c53.02 0 96 42.98 96 96V416c0 53.02-42.98 96-96 96zM960 144c-26.5 0-48 21.5-48 48 0 26.52 21.5 48 48 48s48-21.48 48-48c0-26.5-21.5-48-48-48z m-92.74 373.4L517.4 867.26c-38.32 38.32-100.46 38.32-138.78 0L28.74 517.4c-38.32-38.32-38.32-100.46 0-138.78L378.6 28.74c38.32-38.32 100.46-38.32 138.78 0L867.26 378.6c38.32 38.34 38.32 100.48 0 138.8zM192 400c-26.5 0-48 21.5-48 48 0 26.52 21.5 48 48 48s48-21.48 48-48c0-26.5-21.5-48-48-48z m256-256c-26.5 0-48 21.5-48 48 0 26.52 21.5 48 48 48s48-21.48 48-48c0-26.5-21.5-48-48-48z m0 256c-26.5 0-48 21.5-48 48 0 26.52 21.5 48 48 48s48-21.48 48-48c0-26.5-21.5-48-48-48z m0 256c-26.5 0-48 21.5-48 48 0 26.52 21.5 48 48 48s48-21.48 48-48c0-26.5-21.5-48-48-48z m256-256c-26.5 0-48 21.5-48 48 0 26.52 21.5 48 48 48s48-21.48 48-48c0-26.5-21.5-48-48-48z"  horiz-adv-x="1280" />

    
    <glyph glyph-name="fanchuan" unicode="&#58944;" d="M228.800512 90.614528 549.74464 90.614528c2.962432 0 5.71904 1.44384 7.378944 3.86048 1.69472 2.453504 2.110464 5.522432 1.063936 8.298496-11.851776 32.002048-1.190912 397.216768 8.946688 634.834944 0.145408 3.443712-1.67936 6.637568-4.7104 8.298496-2.97472 1.659904-6.692864 1.461248-9.489408-0.524288C279.005184 553.784064 220.430336 105.24544 219.872256 100.754176c-0.324608-2.581504 0.467968-5.141504 2.163712-7.092224C223.750144 91.752192 226.221056 90.614528 228.800512 90.614528zM584.650752 102.052608c-0.740352-2.725888-0.180224-5.648384 1.533952-7.866368 1.714176-2.253824 4.34688-3.571712 7.180288-3.571712l186.47552 0c2.848768 0 5.536768 1.353728 7.2704 3.680256 1.67936 2.291712 2.182144 5.26848 1.352704 7.973888-0.65024 2.112512-65.466368 211.821568-187.01824 463.258624-1.896448 3.948544-6.385664 5.952512-10.553344 4.744192-4.202496-1.173504-6.945792-5.195776-6.51264-9.578496C584.72448 557.354752 617.485312 221.61792 584.650752 102.052608zM228.63872-5.317888c4.31104 0 7.559168 0.375808 9.218048 0.648192 96.064512-3.556352 307.27168 45.280256 315.948032 47.282176 4.457472 1.045504 7.431168 5.250048 6.928384 9.832448-0.524288 4.529152-4.383744 7.957504-8.983552 7.957504L166.708224 60.402432c-2.958336 0-5.753856-1.44384-7.4496-3.89632-1.659904-2.417664-2.020352-5.537792-0.9728-8.338432C176.738304-0.126208 213.64736-5.317888 228.63872-5.317888zM968.011776-54.60608c-46.343168 61.135872-180.757504 73.96352-285.333504 73.96352-67.813376 0-121.586688-5.44768-123.6992-5.810176-175.128576-50.203648-438.309888-52.765696-489.289728-52.765696l-5.825536 0.019456c-0.019456 0-0.055296 0-0.07168 0-3.861504 0-7.287808-2.468864-8.552448-6.115328-1.225728-3.682304 0-7.740416 3.10272-10.103808 29.819904-22.567936 92.75904-34.003968 187.053056-34.003968 92.002304 0 211.388416 11.383808 319.374336 30.485504 41.834496 7.379968 90.79296 11.114496 145.472512 11.114496 128.731136 0 247.829504-20.887552 249.0368-21.090304 3.480576-0.612352 7.343104 1.011712 9.274368 4.16768C970.484736-61.568256 970.285056-57.526528 968.011776-54.60608zM690.707456-93.29792c-26.661888 7.2704-54.730752 10.821632-85.796864 10.821632-46.577664 0-93.643776-8.118272-139.194368-15.966208-45.134848-7.791616-91.89376-15.819776-137.678848-15.819776-16.344064 0-31.515648 0.971776-46.345216 2.975744-4.457472 0.791552-8.659968-2.110464-9.904128-6.404096-1.209344-4.312064 0.867328-8.8576 4.926464-10.71616 7.124992-3.248128 48.183296-11.941888 88.105984-16.84992 12.194816-1.603584 24.877056-2.415616 37.721088-2.415616 45.243392 0 88.720384 9.921536 130.752512 19.500032 42.42944 9.653248 82.511872 18.78016 124.742656 18.78016 9.975808 0 19.843072-0.503808 29.295616-1.588224 4.815872-0.432128 8.966144 2.65216 9.849856 7.287808C698.085376-99.090688 695.252992-94.560512 690.707456-93.29792z"  horiz-adv-x="1024" />

    
    <glyph glyph-name="nauticalvesselfubenzhuan" unicode="&#58881;" d="M1014.147863 411.06745c-31.526838 44.593883-83.276484-1.970427-115.114442-11.407738h-63.26109c-0.414827 65.646344-24.578489 119.159003-50.816285 160.745392-9.644724 12.755925-19.393154 25.615556-29.037877 38.371481l-5.185335 5.185335 39.408547 39.408548c30.904598 19.807981 120.299777 23.126595 94.373101 87.113632-9.644724 23.852542-46.25319 38.578894-71.557626 19.704274-18.25238-13.585578-35.363986-58.075755-39.408547-84.002431-14.518939-14.207819-29.037877-28.31193-43.556816-42.519749-33.912092 41.482682-128.3889 84.935791-204.302208 84.002431v58.075754c10.992911 37.43812 71.246506 114.699615-8.296536 129.633381-14.726352 2.800081-25.926676-5.081629-33.186146-10.370671-42.001215-31.008305 2.800081-82.343123 12.444805-115.114442v-62.224022c-65.335224-0.93336-119.055297-24.474782-160.745392-50.816286-12.755925-9.644724-25.615556-19.393154-38.371481-29.037877l-5.185335-5.185335-40.445615 40.445615c-21.570995 33.704679-16.074539 97.795422-69.483492 95.410168-16.074539-0.725947-28.00081-6.222402-35.260279-15.556006-6.429816-8.296536-12.237391-22.193235-9.333604-36.297346 9.644724-46.87543 55.6905-40.549321 91.2619-61.186956 14.207819-14.518939 28.31193-29.037877 42.519749-43.556816-38.371481-52.268179-84.728378-111.173587-82.965364-202.228074h-63.261089c-32.978732 9.74843-82.343123 55.586794-115.114442 11.407738-5.600162-7.570589-12.755925-20.222807-9.333604-36.297347 16.074539-74.254 94.787928-14.415232 129.633381-4.148268h57.038687c6.740936-25.200729 4.459388-50.919992 11.407738-73.63176 16.489366-54.238606 43.453109-90.847073 72.594693-130.670448-14.207819-14.518939-28.31193-29.037877-42.519749-43.556816-29.867531-19.082034-111.588414-21.674701-90.224833-82.965363 8.607656-24.578489 44.593883-41.793802 71.557626-22.815475 19.289447 13.585578 37.334414 61.186956 41.482682 88.150699 13.792992 13.481872 27.68969 26.963743 41.482682 40.445614 30.593478-41.275268 129.633381-86.491392 203.265141-85.039497v-62.224023c-10.163257-34.534333-57.038687-85.039498-10.370671-117.188576 7.155763-4.977922 19.600567-11.407737 34.223213-8.296536 74.979947 16.074539 15.763419 93.647154 5.185335 129.63338v58.075755c63.57221 0.725947 115.944096 21.259874 156.597124 46.668017 14.207819 10.37067 28.31193 20.741341 42.519749 31.112011l5.185335 5.185335c14.518939-14.207819 29.037877-28.31193 43.556816-42.519749 19.082034-29.867531 22.815475-114.803322 85.039497-89.187765 22.815475 9.43731 39.408548 44.593883 20.741341 70.520559-13.896698 19.289447-60.979542 37.230707-88.150699 41.482681-13.481872 13.792992-26.963743 27.68969-40.445614 41.482682 41.690095 31.112011 86.595098 130.566741 85.039497 205.339275h58.075755c35.88252-10.578084 113.040308-70.520559 129.63338 5.185335 3.422321 15.556006-4.044561 27.897104-9.333603 35.26028z m-488.458578 234.377152c51.957059-0.207413 94.476808-18.667207 127.559246-39.408548 9.022483-6.533522 17.94126-13.170751 26.963744-19.704274 2.074134-2.385254 4.148268-4.874215 6.222402-7.259469l-107.854973-107.854973c-18.044967 4.874215-29.452704 18.356087-52.890419 19.704274v154.52299z m-29.037877 0v-154.52299c-21.570995-3.318615-36.19364-11.822564-50.816285-21.778408-36.297347 36.608467-72.594693 73.32064-108.89204 109.929107 28.208224 31.837958 99.558436 67.409358 159.708325 66.372291z m-203.265141-115.114442l21.778408 28.00081 109.929107-109.929107c-8.711363-13.378165-18.044967-28.62305-19.704274-48.742151h-155.560057c5.081629 53.616366 20.015394 95.513875 43.556816 130.670448z m-43.556816-159.708325h154.52299c6.429816-20.637634 14.104112-35.156573 20.741341-51.853352-2.385254-2.074134-4.874215-4.148268-7.25947-6.222402l-102.669637-102.669638c-30.800891 43.349402-63.57221 88.358112-65.335224 160.745392z m246.821957-248.896091c-61.394369 5.703869-130.463034 30.489771-159.708325 67.409358l108.89204 108.89204c14.726352-8.400243 29.141584-19.49686 50.816285-20.741341v-155.560057z m28.00081 201.191007c-46.045777-10.681791-84.935791 33.082439-72.594693 77.780028 7.363176 26.75633 25.926676 33.808386 49.779218 44.593883 88.046992 2.281547 93.750861-105.884545 22.815475-122.373911z m1.037067-201.191007v155.560057c21.570995 1.24448 33.186145 11.304031 48.742151 17.63014 6.637229 3.214908 22.193235-18.044967 28.00081-23.852542l84.002431-84.002431c-44.593883-29.763824-87.528459-63.468503-160.745392-65.335224z m181.486733 87.113632c-36.297347 35.986226-72.594693 71.868746-108.89204 107.854973 5.807575 17.94126 19.911687 29.348997 20.741341 53.927486h155.560057c-6.118696-65.438931-27.68969-129.32226-67.409358-161.782459z m-88.150699 190.820336c-3.318615 21.674701-11.822564 36.19364-21.778408 50.816286l108.89204 108.892039c8.296536-5.185335 12.963338-14.933765 18.667207-22.815475 19.807981-27.897104 34.949159-58.801701 44.593883-97.484302 1.763014-13.170751 3.422321-26.237796 5.185335-39.408548h-155.560057z"  horiz-adv-x="1024" />

    
    <glyph glyph-name="fanchuanzhuanhuan" unicode="&#59012;" d="M358.82 667.8009999999999s-83.159-409.559-176.761-517.14c0 0 285.42-49.92 582.121 76.5 0 0-220.32 435.721-299.28 636.72l17.641-445.86-17.641-211.02s-9.84-16.26-35.34 104.041c-27.481 129.239-70.74 356.759-70.74 356.759zM149.06 113.51999999999998s52.441-98.58 68.761-107.7c16.38-9.12 463.2 7.02 501.6 17.94 38.521 10.921 164.64 87.721 154.921 179.401 0.06 0-283.14-149.34-725.28-89.641zM254.54-38.82000000000005h465.3c4.681 0 8.521-3.84 8.521-8.58 0-4.8-3.78-8.7-8.521-8.7h-465.3c-4.713 0.034-8.521 3.862-8.521 8.58 0 0.042 0 0.084 0.001 0.127 0 4.733 3.78 8.573 8.519 8.573zM376.281-78.83900000000006h243.66c4.726-0.017 8.55-3.852 8.55-8.58 0-4.739-3.842-8.58-8.58-8.58-0.01 0-0.021 0-0.032 0h-243.598c-4.74 0-8.58 3.78-8.58 8.58s3.84 8.58 8.58 8.58z"  horiz-adv-x="1024" />

    
    <glyph glyph-name="dapao" unicode="&#59286;" d="M386.7 408.6L280 321.2c-30.9-31.3-47.9-72.7-47.9-116.6 0-44.3 17.3-85.9 48.6-117.3 31.3-31.3 73-48.6 117.3-48.6 42.4 0 82.4 15.8 113.2 44.7-23.6 32.9-35.7 72.6-34.3 113.5 1.6 46.8 20.7 90.9 53.9 124.1 54.5 54.5 137.4 68.9 206.6 37.5l102.9 125.6-162.9 162.7-42.8-35.1 59.4-59.4c7.5-7.5 7.5-19.6 0-27.1-3.7-3.7-8.6-5.6-13.6-5.6s-9.8 1.9-13.6 5.6l-62.1 62.1-41.8-34.3 28.7-28.7c7.5-7.5 7.5-19.6 0-27.1-3.7-3.7-8.6-5.6-13.6-5.6-4.9 0-9.8 1.9-13.6 5.6L533 528.6 439.6 452c-3.6-2.9-7.9-4.3-12.1-4.3-5.5 0-11.1 2.4-14.8 7l-23.3-19.1c6.7-8.2 5.5-20.3-2.7-27zM954.3 546.5c3.6 3.6 5.6 8.5 5.6 13.6s-2 10-5.6 13.6L766.9 760.9c-7.5 7.5-19.6 7.5-27.1 0l-74-74-71.7-58.8-0.2-0.2-71.5-58.6c-0.1-0.1-0.2-0.2-0.3-0.2l-106.8-87.5c-8.2-6.7-9.4-18.8-2.7-27 3.8-4.6 9.3-7 14.8-7 4.3 0 8.6 1.4 12.1 4.3l93.5 76.6 31.4-31.4c3.7-3.7 8.6-5.6 13.6-5.6 4.9 0 9.8 1.9 13.6 5.6 7.5 7.5 7.5 19.6 0 27.1L562.9 553l41.9 34.3 62.1-62.1c3.7-3.7 8.6-5.6 13.6-5.6 4.9 0 9.8 1.9 13.6 5.6 7.5 7.5 7.5 19.6 0 27.1l-59.4 59.4 42.8 35.1L840.3 484l-103-125.5c-69.2 31.4-152 17-206.6-37.5-33.2-33.2-52.3-77.2-53.9-124.1-1.4-40.9 10.7-80.6 34.3-113.5-30.8-28.8-70.8-44.7-113.2-44.7-44.3 0-85.9 17.3-117.3 48.6-31.3 31.3-48.6 73-48.6 117.3 0 44 17 85.3 47.9 116.6l106.6 87.4c8.2 6.7 9.4 18.8 2.7 27s-18.8 9.4-27 2.7l-107.4-88c-0.5-0.4-1-0.8-1.4-1.3-38.6-38.6-59.8-89.9-59.8-144.4 0-47.4 16-92.3 45.5-128.6-12.2-7.6-26.4-11.7-41.2-11.7-20.9 0-40.6 8.2-55.4 23l-46.1 46.1c-7.5 7.5-19.6 7.5-27.1 0s-7.5-19.6 0-27.1l46.1-46.1c22-22.1 51.4-34.2 82.5-34.2 25 0 48.7 7.8 68.5 22.2 36.7-30.9 82.7-47.8 131.3-47.8 51.9 0 100.8 19.2 138.7 54.3 35.1-32.2 79.7-48.3 124.4-48.3 47.2 0 94.4 18 130.3 53.9 34.8 34.8 54 81.1 54 130.3 0 49.2-19.2 95.5-54 130.3-6.5 6.5-13.4 12.4-20.6 17.8l109.6 133.7 74.2 74.1zM705.855 672.685l47.588 47.588 160.158-160.158-47.588-47.588zM729.9 121.8c-19-19-43.9-28.5-68.9-28.5-24.9 0-49.9 9.5-68.9 28.5-18.4 18.4-28.5 42.9-28.5 68.9 0 26 10.1 50.5 28.5 68.9 38 38 99.7 38 137.7 0 18.4-18.4 28.5-42.9 28.5-68.9 0.1-26-10-50.5-28.4-68.9zM807 190.7c0 39-15.2 75.6-42.8 103.2-9.4 9.4-19.9 17.4-31.2 23.8 0 0-0.1 0-0.1 0.1-22.4 12.7-47.1 18.8-71.6 18.8-37.9 0-75.4-14.6-103.4-42.7-53.9-53.9-57-141.1-7.2-198.6 2.3-2.7 4.7-5.3 7.2-7.8 28.5-28.5 65.8-42.7 103.2-42.7 37.4 0 74.8 14.2 103.2 42.7 27.5 27.6 42.7 64.2 42.7 103.2zM557.8 87.5c-2.5 2.5-4.9 5.1-7.2 7.8-49.8 57.5-46.6 144.8 7.2 198.6 28.1 28.1 65.6 42.7 103.4 42.7 24.6 0 49.3-6.2 71.6-18.8 0 0 0.1 0 0.1-0.1 11.3-6.4 21.8-14.4 31.2-23.8 27.6-27.6 42.8-64.2 42.8-103.2s-15.2-75.6-42.8-103.2c-28.5-28.5-65.8-42.7-103.2-42.7-37.2 0-74.6 14.2-103.1 42.7zM729.9 259.6c-38 38-99.8 38-137.7 0-18.4-18.4-28.5-42.9-28.5-68.9 0-26 10.1-50.5 28.5-68.9 19-19 43.9-28.5 68.9-28.5 24.9 0 49.9 9.5 68.9 28.5 18.4 18.4 28.5 42.9 28.5 68.9-0.1 26-10.2 50.5-28.6 68.9zM702.8 232.4c-11.5 11.5-26.6 17.3-41.8 17.3-15.1 0-30.2-5.8-41.7-17.3-11.2-11.1-17.3-26-17.3-41.8 0-15.8 6.1-30.6 17.3-41.8 23-23 60.5-23 83.5 0 11.1 11.1 17.3 26 17.3 41.7 0 16-6.2 30.8-17.3 41.9zM619.3 148.9c-11.1 11.1-17.3 26-17.3 41.8s6.1 30.6 17.3 41.8c11.5 11.5 26.6 17.3 41.7 17.3 15.1 0 30.2-5.8 41.8-17.3 11.1-11.1 17.3-26 17.3-41.8 0-15.8-6.1-30.6-17.3-41.7-23-23.1-60.5-23.1-83.5-0.1z"  horiz-adv-x="1024" />

    
    <glyph glyph-name="fanchuan1" unicode="&#59226;" d="M64 26.88l185.6-59.52 51.2-32.64H960l-56.96 92.16a2426.24 2426.24 0 0 0-586.88-25.6c-50.56 8.32-252.16 25.6-252.16 25.6zM426.24 15.36S645.76 128 768 111.36c5.76-7.68 26.88-55.04 33.92-64a1520 1520 0 0 0-375.68-32zM498.56 832s-6.4-96 161.92-128c55.68-199.04 299.52-576 299.52-576s-354.56 51.2-400.64 0C448 585.6 498.56 832 498.56 832zM490.24 704a1193.6 1193.6 0 0 1-288-608.64c119.68 108.16 236.8 34.56 294.4 14.72C349.44 280.32 490.24 704 490.24 704zM304 570.88C150.4 442.88 64 87.68 64 87.68a225.92 225.92 0 0 0 266.88 0c-128.64 133.12-26.88 483.2-26.88 483.2z"  horiz-adv-x="1024" />

    
    <glyph glyph-name="icon-test" unicode="&#59120;" d="M268.325926 270.222222c18.962963-19.911111 28.444444-51.2 30.340741-73.007407h347.97037c10.42963 8.533333 20.859259 19.911111 26.548148 50.251852-40.77037-1.896296-82.488889-0.948148-122.311111 0v25.6l103.348148 9.481481v4.740741l-101.451852-9.481482c6.637037 3.792593 20.859259 9.481481 36.977778 10.42963 21.807407 0.948148 60.681481 0 60.681482 0-16.118519 82.488889-16.118519 147.911111-9.481482 190.577778 0 0-72.059259-33.185185-91.97037-41.718519v6.637037l95.762963 47.407408-0.948148 4.74074L548.02963 450.37037v11.377778c19.911111 21.807407 44.562963 33.185185 73.007407 36.02963l-72.059259 136.533333c9.481481 0.948148 10.42963 4.740741 21.807407 2.844445v-6.637037s13.274074-2.844444 23.703704-0.948149c10.42963 1.896296 16.118519 9.481481 16.118518 9.481482s-20.859259 0-25.6 0.948148c-0.948148 0-3.792593 0-5.688888 0.948148l0.948148 6.637037c-14.222222 1.896296-24.651852 0-38.874074-1.896296l-4.740741-396.325926c-46.459259 1.896296-91.97037 5.688889-136.533333 10.42963v14.222222l129.896296 9.481481v4.740741l-128-9.481481c8.533333 3.792593 26.548148 9.481481 46.459259 10.429629 27.496296 0.948148 75.851852 0 75.851852 0-19.911111 82.488889-19.911111 147.911111-11.377778 190.577778 0 0-90.074074-33.185185-114.725926-41.718519v6.637037l120.414815 45.511112-0.948148 4.74074L397.274074 450.37037v11.377778c24.651852 21.807407 55.940741 33.185185 91.97037 36.02963L398.222222 634.311111c7.585185 0.948148 9.481481 4.740741 20.859259 2.844445l-0.948148-6.637037s13.274074-2.844444 23.703704-0.948149c10.42963 1.896296 16.118519 9.481481 16.118519 9.481482s-20.859259 0-25.6 0.948148c-0.948148 0-3.792593 0-5.688889 0.948148l0.948148 6.637037c-14.222222 1.896296-24.651852 0-38.874074-1.896296L193.422222 324.266667l-3.792592-6.637037 0.948148-0.948149 77.748148-46.459259z m39.822222-17.066666c69.214815-7.585185 139.377778-12.325926 208.592593-14.222223v-9.481481h9.481481v8.533333h9.481482v-8.533333h9.481481v8.533333h10.42963v-8.533333h9.481481v8.533333h11.377778v-8.533333h9.481482v8.533333h10.429629v-7.585185h9.481482v7.585185h9.481481v-7.585185h9.481482v7.585185h8.533333v-7.585185h9.481481v7.585185h6.637037c-0.948148-3.792593-2.844444-6.637037-3.792592-10.429629-111.881481-0.948148-223.762963 0.948148-335.644445 8.533333 1.896296 4.740741 0 11.377778-1.896296 17.066667z m-56.888889 46.459259l96.711111 67.318518 24.651852 208.592593 17.066667 37.925926-5.688889-352.711111c-23.703704 2.844444-47.407407 4.740741-71.111111 7.585185l-62.577778 29.392593 0.948148 1.896296z m-3.792592-0.948148l-52.148148 23.703703 0.948148 1.896297 102.4 91.022222L247.466667 298.666667zM360.296296 555.614815l18.014815 68.266666 11.377778 18.962963V621.037037L360.296296 555.614815z"  horiz-adv-x="1024" />

    
    <glyph glyph-name="jijian" unicode="&#58987;" d="M816.277333 700.8a21.333333 21.333333 0 0 0 0-30.186667L572.330667 426.688l76.202666-76.224a192.064 192.064 0 0 0 283.136-98.112l9.024-25.386667-84.309333-84.309333 45.226667-45.269333a21.333333 21.333333 0 0 0 1.664-28.309334l-1.664-1.856-30.165334-30.165333a21.333333 21.333333 0 0 0-28.309333-1.664l-1.856 1.664-45.226667 45.248-84.330666-84.330667-25.408 9.024A192.064 192.064 0 0 0 588.202667 290.133333L512 366.357333 435.797333 290.133333a192.064 192.064 0 0 0-98.112-283.136l-25.386666-9.024-84.330667 84.330667-45.248-45.248a21.333333 21.333333 0 0 0-30.165333 0L122.389333 67.2a21.333333 21.333333 0 0 0 0 30.165333l45.226667 45.269334-84.309333 84.288 9.024 25.408A192.064 192.064 0 0 0 375.466667 350.464l76.224 76.224L207.722667 670.613333a21.333333 21.333333 0 0 0-1.664 28.309334l1.664 1.856 30.165333 30.165333a21.333333 21.333333 0 0 0 28.309333 1.664l1.856-1.664L512 487.04 755.946667 730.944a21.333333 21.333333 0 0 0 30.165333 0l30.165333-30.165333z m-467.626666-437.482667a106.666667 106.666667 0 0 1-164.437334-16.597333l147.84-147.84a106.666667 106.666667 0 0 1 16.597334 164.437333z m477.546666 0a106.666667 106.666667 0 0 1-146.986666 3.669334l-3.2-3.008-1.322667-1.301334a106.666667 106.666667 0 0 1-2.56-146.858666l3.2-3.349334c5.141333-5.12 10.709333-9.664 16.618667-13.589333l147.84 147.84a107.413333 107.413333 0 0 1-13.589334 16.597333z"  horiz-adv-x="1024" />

    
    <glyph glyph-name="xiaofanchuanlogo" unicode="&#58896;" d="M277.730375 888.964886C277.730375 888.964886 592.334558 496.561831 372.660815 73.673283 451.900273 112.757251 561.737143 167.474808 667.651268 219.847329 671.574013 267.529772 692.75684 727.938931 277.730375 888.964886L277.730375 888.964886ZM503.680512 781.09313C503.680512 781.09313 701.386881 662.277863 724.138803 248.769466 779.05724 275.346564 830.837479 301.141984 875.556776 322.247329 873.20313 400.415267 846.528459 686.509924 503.680512 781.09313L503.680512 781.09313ZM0 53.349619C0 53.349619 244.779314-27.945039 633.915658 53.349619 1045.019379 139.334352 1297.644181 38.49771 1360.408108-42.015267 1360.408108-42.015267 1164.270838 88.525192 760.228059 0.19542 426.010153-72.500762 163.970758-85.789313 0 53.349619L0 53.349619ZM633.915658 53.349619C804.162809 89.30687 947.735292 92.433586 1060.710359 78.363358 1020.698355 190.143511 1080.324087 305.832062 1088.954125 326.937404 1095.23052 341.789313 1109.352401 378.528244 1056.003063 361.331297 1015.991062 348.042749 589.196361 137.770993 349.90889 18.955726 433.855643 21.300762 528.786081 31.462596 633.915658 53.349619L633.915658 53.349619ZM462.88396-94.387785C462.88396-94.387785 625.285617-163.175573 980.686354-102.20458 1208.205587-63.120609 1398.851013-101.422902 1398.851013-101.422902 1398.851013-101.422902 1188.591859-11.529772 907.723287-62.338932 677.065857-104.549619 462.88396-94.387785 462.88396-94.387785L462.88396-94.387785Z"  horiz-adv-x="1405" />

    
    <glyph glyph-name="tool-flip-hor" unicode="&#58957;" d="M15.296-64.448199V546.365893l388.222787-129.343596v-365.502858L15.296-64.448199z m85.119734 492.734461v-378.558817l218.047319 65.023796V355.646489L100.415734 428.286262zM1008.636896-64.448199V546.365893l-388.414786-129.279596v-365.566858l388.414786-115.967638zM487.358525 673.533495h58.559817v-127.167602h-58.559817zM487.358525 448.766198h58.559817v-127.167603h-58.559817zM487.358525 223.9989h58.559817v-127.103603h-58.559817zM487.358525-0.896397h58.559817V-128h-58.559817zM251.327262 696.637423l-60.031812 60.095812A471.230527 471.230527 0 0 0 527.2304 895.9968a472.318524 472.318524 0 0 0 282.367118-92.991709l-50.751842-68.351787A386.366793 386.366793 0 0 1 527.2304 810.877066a387.710788 387.710788 0 0 1-275.903138-114.239643zM683.133913 673.533495L869.309331 865.084897v-191.551402z"  horiz-adv-x="1024" />

    
    <glyph glyph-name="tool-flip-ver" unicode="&#58958;" d="M65.6 896h629.696L561.984 495.68H184.896L65.6 896z m508.032-87.744H183.168l67.328-224.896h248.192l74.944 224.896zM65.6-128h629.696L561.984 272.384H184.896L65.6-128zM695.296 409.344h131.136v-60.16h-131.136zM463.616 409.344h131.008v-60.16H463.616zM231.808 409.344h131.136v-60.16H231.808zM0 409.344h131.2v-60.16H0zM850.048 652.544l62.08 62.08a485.888 485.888 0 0 0 143.488-346.304 486.272 486.272 0 0 0-95.68-291.072l-70.592 52.288a399.104 399.104 0 0 1 78.656 238.72 398.784 398.784 0 0 1-117.952 284.288zM826.432 207.488l197.312-191.936h-197.312z"  horiz-adv-x="1055" />

    
    <glyph glyph-name="Boot" unicode="&#59121;" d="M648.52992 725.32992c0 37.5296-30.73024 68.27008-68.25984 68.27008h-409.6C133.09952 793.6 102.4 762.85952 102.4 725.32992V640h546.12992v85.32992zM170.67008 59.72992H921.6V-25.6H170.67008zM785.07008 384h-204.8v85.32992H443.72992v51.2h136.54016V588.8h-409.6v-256H204.8c103.66976 0 187.72992-84.14208 187.72992-187.74016v-34.12992H921.6V247.45984C921.6 322.85696 860.4672 384 785.07008 384zM341.32992 145.05984C341.32992 220.39552 280.19712 281.6 204.8 281.6h-34.12992v-170.67008h170.65984v34.12992z"  horiz-adv-x="1024" />

    
    <glyph glyph-name="icfireworks" unicode="&#58977;" d="M256 320 128 320C89.6 320 64 345.6 64 384s25.6 64 64 64l128 0c38.4 0 64-25.6 64-64S294.4 320 256 320zM896 320l-128 0c-38.4 0-64 25.6-64 64s25.6 64 64 64l128 0c38.4 0 64-25.6 64-64S934.4 320 896 320zM441.6 128l-64-108.8c-19.2-32-57.6-38.4-89.6-25.6s-38.4 57.6-25.6 89.6l64 108.8c19.2 32 57.6 38.4 89.6 25.6S454.4 160 441.6 128zM761.6 684.8l-64-108.8C678.4 544 640 531.2 608 550.4S569.6 608 582.4 640l64 108.8c19.2 32 57.6 38.4 89.6 25.6S774.4 716.8 761.6 684.8zM697.6 192l64-108.8c19.2-32 6.4-70.4-25.6-89.6s-70.4-6.4-89.6 25.6l-64 108.8c-19.2 32-6.4 70.4 25.6 89.6S678.4 224 697.6 192zM377.6 748.8l64-108.8C454.4 608 448 569.6 416 550.4S345.6 544 326.4 576l-64 108.8C249.6 716.8 256 755.2 288 774.4S358.4 780.8 377.6 748.8z"  horiz-adv-x="1024" />

    
    <glyph glyph-name="cards" unicode="&#58907;" d="M710.809367 748.384573 102.040972 748.384573c-41.445002 0-75.157727-33.716905-75.157727-75.157727l0-726.069119c0-41.440822 33.716905-75.157727 75.157727-75.157727l608.768395 0c41.440822 0 75.157727 33.716905 75.157727 75.157727L785.967094 673.226846C785.967094 714.667668 752.254368 748.384573 710.809367 748.384573zM924.496051 896 338.205593 896c-41.440822 0-75.157727-33.716905-75.157727-75.157727l0-10.695619 447.761501 0c75.500455 0 136.923987-61.423532 136.923987-136.923987L847.733354 45.299124l76.766877 0c41.440822 0 75.157727 33.716905 75.157727 75.157727L999.657958 820.842273C999.657958 862.287275 965.941053 896 924.496051 896z"  horiz-adv-x="1024" />

    
    <glyph glyph-name="Hand" unicode="&#58981;" d="M839.111111 725.333333c-22.755556 0-42.666667-19.911111-42.666667-42.666666V384c0-17.066667-11.377778-28.444444-28.444444-28.444444s-28.444444 11.377778-28.444444 28.444444V753.777778c0 22.755556-19.911111 42.666667-42.666667 42.666666S654.222222 776.533333 654.222222 753.777778v-341.333334c0-17.066667-11.377778-28.444444-28.444444-28.444444s-28.444444 11.377778-28.444445 28.444444V839.111111c0 31.288889-25.6 56.888889-56.888889 56.888889s-56.888889-25.6-56.888888-56.888889v-426.666667c0-17.066667-11.377778-28.444444-28.444445-28.444444s-28.444444 11.377778-28.444444 28.444444V753.777778c0 31.288889-25.6 56.888889-56.888889 56.888889s-56.888889-25.6-56.888889-56.888889v-455.111111h-8.533333l-51.2 184.888889c-8.533333 31.288889-39.822222 48.355556-71.111112 39.822222-31.288889-8.533333-48.355556-39.822222-39.822222-71.111111l85.333334-312.888889c2.844444-8.533333 8.533333-17.066667 14.222222-25.6l182.044444-182.044445V-128h369.777778v85.333333l85.333333 227.555556V682.666667c2.844444 22.755556-17.066667 42.666667-39.822222 42.666666z"  horiz-adv-x="1024" />

    
    <glyph glyph-name="explosion" unicode="&#60518;" d="M572.601011 174.531803c-11.990718 0-23.643154-1.801122-34.815596-5.357652-18.719783 20.232908-45.284046 31.963058-73.553432 31.963057-48.730863 0-89.397819-34.678455-97.918863-80.300782C319.794802 115.96334 283.415796 77.051791 283.415796 29.925481c0-42.998358 30.783643-79.871073 72.227733-89.173822 12.754138-40.538958 50.778839-68.753488 95.043468-68.753488 49.421141 0 90.545235 35.643015 98.261717 82.216189 7.71191-1.609124 15.606676-2.4274 23.647726-2.4274 62.367276 0 113.09583 49.965134 113.09583 111.372421s-50.728554 111.372422-113.09583 111.372422zM276.577018 439.118446a18.267217 18.267217 0 0 1 24.863712-7.108489 18.276359 18.276359 0 0 1 7.099346 24.85914l-182.855021 329.139037a18.262645 18.262645 0 0 1-24.868282 7.103917 18.276359 18.276359 0 0 1-7.094775-24.854568l182.85502-329.139037zM402.756125 260.976514a18.285502 18.285502 0 1 1 35.601873 8.319903l-127.998515 548.565061a18.276359 18.276359 0 1 1-35.606444-8.319903l127.998515-548.565061zM447.967029 493.705241c0.383996 0 0.767991 0.018286 1.161129 0.036571a18.271788 18.271788 0 0 1 17.106087 19.391775l-18.285502 292.568033c-0.635421 10.093597-9.179322 17.394084-19.391774 17.106087a18.271788 18.271788 0 0 1-17.106088-19.391775l18.285502-292.568033a18.276359 18.276359 0 0 1 18.230646-17.142658zM491.564237 283.549966a18.285502 18.285502 0 0 1 20.296907 16.0181l36.571005 310.853534a18.285502 18.285502 0 0 1-16.027243 20.301479c-9.974741 1.266271-19.10835-5.983931-20.296907-16.0181l-36.571004-310.853534a18.285502 18.285502 0 0 1 16.027242-20.301479zM661.125698 457.815372l-127.998515-201.140523a18.294645 18.294645 0 0 1 15.405536-28.109388 18.308359 18.308359 0 0 1 15.451249 8.466188l127.998514 201.140522a18.299216 18.299216 0 0 1-5.609077 25.252279 18.331216 18.331216 0 0 1-25.247707-5.609078zM702.839499 487.725882a18.299216 18.299216 0 0 1 25.407705 4.836515l155.426768 228.568776a18.294645 18.294645 0 0 1-30.248792 20.571189l-155.426767-228.568775a18.294645 18.294645 0 0 1 4.841086-25.407705zM578.269517 431.045397c2.249117-0.909704 4.571376-1.339413 6.84792-1.339413 7.231916 0 14.079837 4.324521 16.959803 11.428439l173.71227 429.709298A18.285502 18.285502 0 0 1 765.695912 894.651444a18.271788 18.271788 0 0 1-23.812295-10.093597l-173.712269-429.709298a18.285502 18.285502 0 0 1 10.098169-23.803152zM854.632023 487.277887l-210.283273-246.854278a18.299216 18.299216 0 0 1 2.06169-25.782558 18.194075 18.194075 0 0 1 11.849005-4.361092c5.165654 0 10.313023 2.180546 13.928981 6.431926l210.283274 246.854277a18.299216 18.299216 0 0 1-2.066262 25.782558 18.271788 18.271788 0 0 1-25.773415-2.070833zM848.437809 279.764867l-146.284016-109.713012a18.267217 18.267217 0 0 1-3.657101-25.59056 18.216931 18.216931 0 0 1 14.646688-7.323344 18.239788 18.239788 0 0 1 10.953015 3.661672l146.284017 109.713012a18.267217 18.267217 0 0 1 3.6571 25.59056 18.271788 18.271788 0 0 1-25.599703 3.657101zM1010.98678 376.943168c-6.217071 7.963336-17.723223 9.426176-25.659131 3.195391l-82.284759-63.999257a18.290073 18.290073 0 0 1-3.218249-25.663702 18.285502 18.285502 0 0 1 25.663702-3.195392l82.28476 63.999258a18.290073 18.290073 0 0 1 3.213677 25.663702zM190.370019 426.208882a18.276359 18.276359 0 0 1-4.022811-25.535704l146.284017-201.140523a18.248931 18.248931 0 0 1 14.802114-7.538198 18.276359 18.276359 0 0 1 14.765543 29.037377l-146.284017 201.140523a18.271788 18.271788 0 0 1-25.544846 4.036525zM132.450691 454.295413a18.280931 18.280931 0 0 1 13.832982-6.303927 18.194075 18.194075 0 0 1 11.96329 4.466234 18.303788 18.303788 0 0 1 1.846836 25.805414l-118.855763 137.141266c-6.605638 7.588483-18.157504 8.461616-25.791701 1.837693s-8.457045-18.162075-1.851407-25.805415l118.855763-137.141265zM286.693472 187.121371l-246.854277 228.568775a18.271788 18.271788 0 0 1-25.841986-0.982845 18.285502 18.285502 0 0 1 1.005703-25.837415l246.854277-228.568775A18.175789 18.175789 0 0 1 274.273045 155.423453a18.285502 18.285502 0 0 1 12.420427 31.697918zM225.976463 135.926537l-118.855764 45.713755a18.331216 18.331216 0 0 1-23.634011-10.50045 18.299216 18.299216 0 0 1 10.514164-23.643154l118.855763-45.713755a18.294645 18.294645 0 0 1 23.634011 10.500449 18.299216 18.299216 0 0 1-10.514163 23.643155z"  horiz-adv-x="1024" />

    
    <glyph glyph-name="Heart-AceCard" unicode="&#60506;" d="M597.333333 520.533333c-23.893333 0-68.266667-6.826667-68.266666-51.2 0-10.24-6.826667-17.066667-17.066667-17.066666s-17.066667 6.826667-17.066667 17.066666c0 44.373333-44.373333 51.2-68.266666 51.2-44.373333 0-68.266667-27.306667-68.266667-85.333333 0-71.68 102.4-174.08 153.6-218.453333 51.2 44.373333 153.6 143.36 153.6 218.453333 0 58.026667-23.893333 85.333333-68.266667 85.333333zM337.92 691.2L307.2 766.293333 276.48 691.2zM686.08 76.8l30.72-75.093333 30.72 75.093333zM785.066667 896H238.933333C191.146667 896 153.6 858.453333 153.6 810.666667v-853.333334C153.6-90.453333 191.146667-128 238.933333-128h546.133334c47.786667 0 85.333333 37.546667 85.333333 85.333333v853.333334C870.4 858.453333 832.853333 896 785.066667 896zM232.106667 622.933333c-6.826667 3.413333-13.653333 13.653333-10.24 23.893334l68.266666 170.666666c6.826667 13.653333 27.306667 13.653333 30.72 0l68.266667-170.666666c3.413333-10.24 0-17.066667-10.24-23.893334h-6.826667c-6.826667 0-13.653333 3.413333-17.066666 10.24l-3.413334 23.893334H262.826667l-6.826667-23.893334c-3.413333-6.826667-13.653333-13.653333-23.893333-10.24z m290.133333-440.32c-3.413333-3.413333-6.826667-3.413333-10.24-3.413333s-6.826667 0-10.24 3.413333c-6.826667 6.826667-177.493333 143.36-177.493333 252.586667 0 75.093333 37.546667 119.466667 102.4 119.466667 37.546667 0 68.266667-13.653333 85.333333-34.133334 17.066667 20.48 47.786667 34.133333 85.333333 34.133334 64.853333 0 102.4-44.373333 102.4-119.466667 0-109.226667-170.666667-245.76-177.493333-252.586667z m279.893333-61.44l-68.266666-170.666666c-3.413333-6.826667-10.24-10.24-17.066667-10.24s-13.653333 3.413333-17.066667 10.24l-68.266666 170.666666c-3.413333 10.24 0 17.066667 10.24 23.893334 10.24 3.413333 17.066667 0 23.893333-10.24l10.24-23.893334h85.333333l10.24 23.893334c3.413333 10.24 13.653333 13.653333 23.893334 10.24 3.413333-3.413333 10.24-13.653333 6.826666-23.893334z"  horiz-adv-x="1024" />

    
    <glyph glyph-name="Spade-AceCard" unicode="&#60511;" d="M686.08 76.8l30.72-75.093333 30.72 75.093333zM597.333333 281.6c40.96 0 68.266667 40.96 68.266667 102.4 0 78.506667-122.88 150.186667-153.6 167.253333-30.72-17.066667-153.6-88.746667-153.6-167.253333 0-61.44 27.306667-102.4 68.266667-102.4 13.653333 0 20.48 6.826667 30.72 20.48l6.826666 6.826667c6.826667 6.826667 13.653333 6.826667 20.48 6.826666 6.826667-3.413333 10.24-10.24 10.24-17.066666-3.413333-34.133333-13.653333-64.853333-23.893333-81.92h81.92c-10.24 20.48-20.48 47.786667-23.893333 81.92 0 6.826667 3.413333 13.653333 10.24 17.066666 6.826667 3.413333 13.653333 0 20.48-3.413333l6.826666-6.826667c10.24-17.066667 17.066667-23.893333 30.72-23.893333zM337.92 691.2L307.2 766.293333 276.48 691.2zM785.066667 896H238.933333C191.146667 896 153.6 858.453333 153.6 810.666667v-853.333334C153.6-90.453333 191.146667-128 238.933333-128h546.133334c47.786667 0 85.333333 37.546667 85.333333 85.333333v853.333334C870.4 858.453333 832.853333 896 785.066667 896zM232.106667 622.933333c-6.826667 3.413333-13.653333 13.653333-10.24 23.893334l68.266666 170.666666c6.826667 13.653333 27.306667 13.653333 30.72 0l68.266667-170.666666c3.413333-10.24 0-17.066667-10.24-23.893334h-6.826667c-6.826667 0-13.653333 3.413333-17.066666 10.24l-3.413334 23.893334H262.826667l-6.826667-23.893334c-3.413333-6.826667-13.653333-13.653333-23.893333-10.24zM580.266667 179.2h-136.533334c-6.826667 0-10.24 3.413333-13.653333 10.24s-3.413333 13.653333 0 17.066667c0 0 10.24 17.066667 20.48 47.786666-6.826667-3.413333-13.653333-6.826667-23.893333-6.826666-51.2 0-102.4 47.786667-102.4 136.533333 0 112.64 174.08 197.973333 180.906666 201.386667 3.413333 3.413333 10.24 3.413333 13.653334 0 6.826667-3.413333 180.906667-92.16 180.906666-201.386667 0-88.746667-51.2-136.533333-102.4-136.533333-10.24 0-17.066667 3.413333-23.893333 3.413333 6.826667-20.48 17.066667-37.546667 20.48-44.373333 3.413333-3.413333 6.826667-6.826667 6.826667-13.653334-3.413333-6.826667-10.24-13.653333-20.48-13.653333z m221.866666-58.026667l-68.266666-170.666666c-3.413333-6.826667-10.24-10.24-17.066667-10.24s-13.653333 3.413333-17.066667 10.24l-68.266666 170.666666c-3.413333 10.24 0 17.066667 10.24 23.893334 10.24 3.413333 17.066667 0 23.893333-10.24l10.24-23.893334h85.333333l10.24 23.893334c3.413333 10.24 13.653333 13.653333 23.893334 10.24 3.413333-3.413333 10.24-13.653333 6.826666-23.893334z"  horiz-adv-x="1024" />

    
    <glyph glyph-name="Clubs-AceCard" unicode="&#60515;" d="M665.6 349.866667c0 37.546667-30.72 68.266667-68.266667 68.266666-3.413333 0-10.24 0-17.066666-3.413333-6.826667 0-10.24 0-17.066667 3.413333s-6.826667 10.24-3.413333 17.066667c0 6.826667 3.413333 10.24 3.413333 17.066667 0 37.546667-30.72 68.266667-68.266667 68.266666s-68.266667-30.72-68.266666-68.266666c0-3.413333 0-10.24 3.413333-17.066667 0-6.826667 0-10.24-3.413333-17.066667-3.413333-3.413333-10.24-6.826667-17.066667-3.413333-6.826667 0-10.24 3.413333-17.066667 3.413333-37.546667 0-68.266667-30.72-68.266666-68.266666s30.72-68.266667 68.266666-68.266667c27.306667 0 54.613333 17.066667 64.853334 47.786667 3.413333 6.826667 6.826667 10.24 13.653333 10.24s13.653333 0 17.066667-6.826667l3.413333-3.413333c3.413333-3.413333 3.413333-10.24 3.413333-13.653334-6.826667-40.96-17.066667-78.506667-23.893333-102.4h54.613333c-6.826667 23.893333-17.066667 64.853333-23.893333 102.4 0 3.413333 0 10.24 3.413333 13.653334l3.413334 3.413333c3.413333 3.413333 10.24 6.826667 17.066666 6.826667s10.24-6.826667 13.653334-10.24c10.24-27.306667 34.133333-47.786667 64.853333-47.786667 30.72 0 61.44 30.72 61.44 68.266667zM686.08 76.8l30.72-75.093333 30.72 75.093333zM337.92 691.2L307.2 766.293333 276.48 691.2zM785.066667 896H238.933333C191.146667 896 153.6 858.453333 153.6 810.666667v-853.333334C153.6-90.453333 191.146667-128 238.933333-128h546.133334c47.786667 0 85.333333 37.546667 85.333333 85.333333v853.333334C870.4 858.453333 832.853333 896 785.066667 896zM232.106667 622.933333c-6.826667 3.413333-13.653333 13.653333-10.24 23.893334l68.266666 170.666666c6.826667 13.653333 27.306667 13.653333 30.72 0l68.266667-170.666666c3.413333-10.24 0-17.066667-10.24-23.893334h-6.826667c-6.826667 0-13.653333 3.413333-17.066666 10.24l-3.413334 23.893334H262.826667l-6.826667-23.893334c-3.413333-6.826667-13.653333-13.653333-23.893333-10.24z m331.093333-419.84c0-6.826667 0-10.24-3.413333-13.653333s-6.826667-10.24-13.653334-10.24h-102.4c-6.826667 0-10.24 3.413333-13.653333 6.826667-3.413333 3.413333-3.413333 10.24-3.413333 13.653333 0 0 6.826667 27.306667 17.066666 61.44-17.066667-10.24-34.133333-13.653333-51.2-13.653333-58.026667 0-102.4 44.373333-102.4 102.4s44.373333 102.4 102.4 102.4c0 58.026667 44.373333 102.4 102.4 102.4s102.4-44.373333 102.4-102.4c58.026667 0 102.4-44.373333 102.4-102.4s-44.373333-102.4-102.4-102.4c-20.48 0-37.546667 6.826667-51.2 13.653333 6.826667-34.133333 17.066667-58.026667 17.066667-58.026667z m238.933333-81.92l-68.266666-170.666666c-3.413333-6.826667-10.24-10.24-17.066667-10.24s-13.653333 3.413333-17.066667 10.24l-68.266666 170.666666c-3.413333 10.24 0 17.066667 10.24 23.893334 10.24 3.413333 17.066667 0 23.893333-10.24l10.24-23.893334h85.333333l10.24 23.893334c3.413333 10.24 13.653333 13.653333 23.893334 10.24 3.413333-3.413333 10.24-13.653333 6.826666-23.893334z"  horiz-adv-x="1024" />

    
    <glyph glyph-name="Diamond-AceCard" unicode="&#60516;" d="M785.066667 896H238.933333C191.146667 896 153.6 858.453333 153.6 810.666667v-853.333334C153.6-90.453333 191.146667-128 238.933333-128h546.133334c47.786667 0 85.333333 37.546667 85.333333 85.333333v853.333334C870.4 858.453333 832.853333 896 785.066667 896zM232.106667 622.933333c-6.826667 3.413333-13.653333 13.653333-10.24 23.893334l68.266666 170.666666c6.826667 13.653333 27.306667 13.653333 30.72 0l68.266667-170.666666c3.413333-10.24 0-17.066667-10.24-23.893334h-6.826667c-6.826667 0-13.653333 3.413333-17.066666 10.24l-3.413334 23.893334H262.826667l-6.826667-23.893334c-3.413333-6.826667-13.653333-13.653333-23.893333-10.24z m296.96-426.666666c0-10.24-6.826667-17.066667-17.066667-17.066667s-17.066667 6.826667-17.066667 17.066667c0 64.853333-88.746667 153.6-126.293333 174.08-6.826667 3.413333-10.24 10.24-10.24 13.653333s3.413333 13.653333 10.24 13.653333c37.546667 17.066667 126.293333 105.813333 126.293333 174.08 0 10.24 6.826667 17.066667 17.066667 17.066667s17.066667-6.826667 17.066667-17.066667c0-64.853333 88.746667-153.6 126.293333-174.08 6.826667-3.413333 10.24-10.24 10.24-13.653333s-3.413333-13.653333-10.24-13.653333c-37.546667-20.48-126.293333-109.226667-126.293333-174.08z m273.066666-75.093334l-68.266666-170.666666c-3.413333-6.826667-10.24-10.24-17.066667-10.24s-13.653333 3.413333-17.066667 10.24l-68.266666 170.666666c-3.413333 10.24 0 17.066667 10.24 23.893334 10.24 3.413333 17.066667 0 20.48-10.24l10.24-23.893334h85.333333l10.24 23.893334c3.413333 10.24 13.653333 13.653333 20.48 10.24 10.24-3.413333 17.066667-13.653333 13.653333-23.893334zM686.08 76.8l30.72-75.093333 30.72 75.093333zM512 506.88c-23.893333-51.2-71.68-98.986667-105.813333-122.88 34.133333-23.893333 81.92-71.68 105.813333-122.88 23.893333 51.2 71.68 98.986667 105.813333 122.88-34.133333 23.893333-81.92 71.68-105.813333 122.88zM337.92 691.2L307.2 766.293333 276.48 691.2z"  horiz-adv-x="1024" />

    
    <glyph glyph-name="cards1" unicode="&#59019;" d="M736 864H288a192 192 0 0 1-192-192v-576a192 192 0 0 1 192-192h448a192 192 0 0 1 192 192V672a192 192 0 0 1-192 192zM192 716.48A50.88 50.88 0 0 0 237.76 768a45.44 45.44 0 0 0 42.24-28.16l8-19.52 8 19.52A45.44 45.44 0 0 0 338.24 768 50.88 50.88 0 0 0 384 716.48C384 657.6 300.16 608 288 606.08S192 657.6 192 716.48z m320-480c-22.08 2.56-176 94.4-176 202.56a93.44 93.44 0 0 0 83.84 94.08A83.52 83.52 0 0 0 497.28 480l14.72-35.2 14.72 35.2a83.52 83.52 0 0 0 77.44 51.84 93.44 93.44 0 0 0 83.84-94.08c0-107.84-153.92-199.68-176-202.24z m274.24-237.44a45.44 45.44 0 0 0-42.24 28.16l-8 18.56-8-19.52a45.44 45.44 0 0 0-42.24-28.16A50.88 50.88 0 0 0 640 49.6c0 58.88 83.84 110.4 96 110.4s96-51.52 96-110.4a50.88 50.88 0 0 0-45.76-51.52z"  horiz-adv-x="1024" />

    


  </font>
</defs>
</svg>
